<svg width="4386" height="1335" viewBox="0 0 4386 1335" fill="none" xmlns="http://www.w3.org/2000/svg">
<g clip-path="url(#clip0_705_3)">
<path d="M267.4 511.8V594H95.8V682.8H224.2V762.6H95.8V933H-6.8V511.8H267.4ZM423.925 853.8H558.325V933H321.325V511.8H423.925V853.8ZM886.811 937.2C856.011 937.2 828.411 932.2 804.011 922.2C779.611 912.2 760.011 897.4 745.211 877.8C730.811 858.2 723.211 834.6 722.411 807H831.611C833.211 822.6 838.611 834.6 847.811 843C857.011 851 869.011 855 883.811 855C899.011 855 911.011 851.6 919.811 844.8C928.611 837.6 933.011 827.8 933.011 815.4C933.011 805 929.411 796.4 922.211 789.6C915.411 782.8 906.811 777.2 896.411 772.8C886.411 768.4 872.011 763.4 853.211 757.8C826.011 749.4 803.811 741 786.611 732.6C769.411 724.2 754.611 711.8 742.211 695.4C729.811 679 723.611 657.6 723.611 631.2C723.611 592 737.811 561.4 766.211 539.4C794.611 517 831.611 505.8 877.211 505.8C923.611 505.8 961.011 517 989.411 539.4C1017.81 561.4 1033.01 592.2 1035.01 631.8H924.011C923.211 618.2 918.211 607.6 909.011 600C899.811 592 888.011 588 873.611 588C861.211 588 851.211 591.4 843.611 598.2C836.011 604.6 832.211 614 832.211 626.4C832.211 640 838.611 650.6 851.411 658.2C864.211 665.8 884.211 674 911.411 682.8C938.611 692 960.611 700.8 977.411 709.2C994.611 717.6 1009.41 729.8 1021.81 745.8C1034.21 761.8 1040.41 782.4 1040.41 807.6C1040.41 831.6 1034.21 853.4 1021.81 873C1009.81 892.6 992.211 908.2 969.011 919.8C945.811 931.4 918.411 937.2 886.811 937.2ZM1290.15 846V933H1237.95C1200.75 933 1171.75 924 1150.95 906C1130.15 887.6 1119.75 857.8 1119.75 816.6V683.4H1078.95V598.2H1119.75V516.6H1222.35V598.2H1289.55V683.4H1222.35V817.8C1222.35 827.8 1224.75 835 1229.55 839.4C1234.35 843.8 1242.35 846 1253.55 846H1290.15ZM1677.9 598.2V933H1575.3V887.4C1564.9 902.2 1550.7 914.2 1532.7 923.4C1515.1 932.2 1495.5 936.6 1473.9 936.6C1448.3 936.6 1425.7 931 1406.1 919.8C1386.5 908.2 1371.3 891.6 1360.5 870C1349.7 848.4 1344.3 823 1344.3 793.8V598.2H1446.3V780C1446.3 802.4 1452.1 819.8 1463.7 832.2C1475.3 844.6 1490.9 850.8 1510.5 850.8C1530.5 850.8 1546.3 844.6 1557.9 832.2C1569.5 819.8 1575.3 802.4 1575.3 780V598.2H1677.9ZM1731.2 765C1731.2 730.6 1737.6 700.4 1750.4 674.4C1763.6 648.4 1781.4 628.4 1803.8 614.4C1826.2 600.4 1851.2 593.4 1878.8 593.4C1900.8 593.4 1920.8 598 1938.8 607.2C1957.2 616.4 1971.6 628.8 1982 644.4V489H2084.6V933H1982V885C1972.4 901 1958.6 913.8 1940.6 923.4C1923 933 1902.4 937.8 1878.8 937.8C1851.2 937.8 1826.2 930.8 1803.8 916.8C1781.4 902.4 1763.6 882.2 1750.4 856.2C1737.6 829.8 1731.2 799.4 1731.2 765ZM1982 765.6C1982 740 1974.8 719.8 1960.4 705C1946.4 690.2 1929.2 682.8 1908.8 682.8C1888.4 682.8 1871 690.2 1856.6 705C1842.6 719.4 1835.6 739.4 1835.6 765C1835.6 790.6 1842.6 811 1856.6 826.2C1871 841 1888.4 848.4 1908.8 848.4C1929.2 848.4 1946.4 841 1960.4 826.2C1974.8 811.4 1982 791.2 1982 765.6ZM2210.43 563.4C2192.43 563.4 2177.63 558.2 2166.03 547.8C2154.83 537 2149.23 523.8 2149.23 508.2C2149.23 492.2 2154.83 479 2166.03 468.6C2177.63 457.8 2192.43 452.4 2210.43 452.4C2228.03 452.4 2242.43 457.8 2253.63 468.6C2265.23 479 2271.03 492.2 2271.03 508.2C2271.03 523.8 2265.23 537 2253.63 547.8C2242.43 558.2 2228.03 563.4 2210.43 563.4ZM2261.43 598.2V933H2158.83V598.2H2261.43ZM2488.18 937.8C2455.38 937.8 2425.78 930.8 2399.38 916.8C2373.38 902.8 2352.78 882.8 2337.58 856.8C2322.78 830.8 2315.38 800.4 2315.38 765.6C2315.38 731.2 2322.98 701 2338.18 675C2353.38 648.6 2374.18 628.4 2400.58 614.4C2426.98 600.4 2456.58 593.4 2489.38 593.4C2522.18 593.4 2551.78 600.4 2578.18 614.4C2604.58 628.4 2625.38 648.6 2640.58 675C2655.78 701 2663.38 731.2 2663.38 765.6C2663.38 800 2655.58 830.4 2639.98 856.8C2624.78 882.8 2603.78 902.8 2576.98 916.8C2550.58 930.8 2520.98 937.8 2488.18 937.8ZM2488.18 849C2507.78 849 2524.38 841.8 2537.98 827.4C2551.98 813 2558.98 792.4 2558.98 765.6C2558.98 738.8 2552.18 718.2 2538.58 703.8C2525.38 689.4 2508.98 682.2 2489.38 682.2C2469.38 682.2 2452.78 689.4 2439.58 703.8C2426.38 717.8 2419.78 738.4 2419.78 765.6C2419.78 792.4 2426.18 813 2438.98 827.4C2452.18 841.8 2468.58 849 2488.18 849Z" fill="white"/>
</g>
<defs>
<clipPath id="clip0_705_3">
<rect width="4386" height="1335" fill="white"/>
</clipPath>
</defs>
</svg>
