<svg width="5221" height="978" viewBox="0 0 5221 978" fill="none" xmlns="http://www.w3.org/2000/svg">
<path d="M512 332.8V584.8C512 610 518.2 629.4 530.6 643C543 656.6 561.2 663.4 585.2 663.4C609.2 663.4 627.6 656.6 640.4 643C653.2 629.4 659.6 610 659.6 584.8V332.8H762.2V584.2C762.2 621.8 754.2 653.6 738.2 679.6C722.2 705.6 700.6 725.2 673.4 738.4C646.6 751.6 616.6 758.2 583.4 758.2C550.2 758.2 520.4 751.8 494 739C468 725.8 447.4 706.2 432.2 680.2C417 653.8 409.4 621.8 409.4 584.2V332.8H512ZM1038.25 415.6C1077.45 415.6 1108.65 428.4 1131.85 454C1155.45 479.2 1167.25 514 1167.25 558.4V754H1065.25V572.2C1065.25 549.8 1059.45 532.4 1047.85 520C1036.25 507.6 1020.65 501.4 1001.05 501.4C981.447 501.4 965.847 507.6 954.247 520C942.647 532.4 936.847 549.8 936.847 572.2V754H834.247V419.2H936.847V463.6C947.247 448.8 961.247 437.2 978.847 428.8C996.447 420 1016.25 415.6 1038.25 415.6ZM1341.14 475C1353.14 456.6 1368.14 442.2 1386.14 431.8C1404.14 421 1424.14 415.6 1446.14 415.6V524.2H1417.94C1392.34 524.2 1373.14 529.8 1360.34 541C1347.54 551.8 1341.14 571 1341.14 598.6V754H1238.54V419.2H1341.14V475ZM1810.78 581.2C1810.78 590.8 1810.18 600.8 1808.98 611.2H1576.78C1578.38 632 1584.98 648 1596.58 659.2C1608.58 670 1623.18 675.4 1640.38 675.4C1665.98 675.4 1683.78 664.6 1693.78 643H1802.98C1797.38 665 1787.18 684.8 1772.38 702.4C1757.98 720 1739.78 733.8 1717.78 743.8C1695.78 753.8 1671.18 758.8 1643.98 758.8C1611.18 758.8 1581.98 751.8 1556.38 737.8C1530.78 723.8 1510.78 703.8 1496.38 677.8C1481.98 651.8 1474.78 621.4 1474.78 586.6C1474.78 551.8 1481.78 521.4 1495.78 495.4C1510.18 469.4 1530.18 449.4 1555.78 435.4C1581.38 421.4 1610.78 414.4 1643.98 414.4C1676.38 414.4 1705.18 421.2 1730.38 434.8C1755.58 448.4 1775.18 467.8 1789.18 493C1803.58 518.2 1810.78 547.6 1810.78 581.2ZM1705.78 554.2C1705.78 536.6 1699.78 522.6 1687.78 512.2C1675.78 501.8 1660.78 496.6 1642.78 496.6C1625.58 496.6 1610.98 501.6 1598.98 511.6C1587.38 521.6 1580.18 535.8 1577.38 554.2H1705.78ZM1844.51 586C1844.51 551.6 1850.91 521.4 1863.71 495.4C1876.91 469.4 1894.71 449.4 1917.11 435.4C1939.51 421.4 1964.51 414.4 1992.11 414.4C2015.71 414.4 2036.31 419.2 2053.91 428.8C2071.91 438.4 2085.71 451 2095.31 466.6V419.2H2197.91V754H2095.31V706.6C2085.31 722.2 2071.31 734.8 2053.31 744.4C2035.71 754 2015.11 758.8 1991.51 758.8C1964.31 758.8 1939.51 751.8 1917.11 737.8C1894.71 723.4 1876.91 703.2 1863.71 677.2C1850.91 650.8 1844.51 620.4 1844.51 586ZM2095.31 586.6C2095.31 561 2088.11 540.8 2073.71 526C2059.71 511.2 2042.51 503.8 2022.11 503.8C2001.71 503.8 1984.31 511.2 1969.91 526C1955.91 540.4 1948.91 560.4 1948.91 586C1948.91 611.6 1955.91 632 1969.91 647.2C1984.31 662 2001.71 669.4 2022.11 669.4C2042.51 669.4 2059.71 662 2073.71 647.2C2088.11 632.4 2095.31 612.2 2095.31 586.6ZM2374.74 310V754H2272.14V310H2374.74ZM2678.84 415V500.2H2816.24V579.4H2678.84V671.8H2834.24V754H2576.24V332.8H2834.24V415H2678.84ZM3104.85 415.6C3144.05 415.6 3175.25 428.4 3198.45 454C3222.05 479.2 3233.85 514 3233.85 558.4V754H3131.85V572.2C3131.85 549.8 3126.05 532.4 3114.45 520C3102.85 507.6 3087.25 501.4 3067.65 501.4C3048.05 501.4 3032.45 507.6 3020.85 520C3009.25 532.4 3003.45 549.8 3003.45 572.2V754H2900.85V419.2H3003.45V463.6C3013.85 448.8 3027.85 437.2 3045.45 428.8C3063.05 420 3082.85 415.6 3104.85 415.6ZM3432.35 414.4C3455.95 414.4 3476.55 419.2 3494.15 428.8C3512.15 438.4 3525.95 451 3535.55 466.6V419.2H3638.15V753.4C3638.15 784.2 3631.95 812 3619.55 836.8C3607.55 862 3588.95 882 3563.75 896.8C3538.95 911.6 3507.95 919 3470.75 919C3421.15 919 3380.95 907.2 3350.15 883.6C3319.35 860.4 3301.75 828.8 3297.35 788.8H3398.75C3401.95 801.6 3409.55 811.6 3421.55 818.8C3433.55 826.4 3448.35 830.2 3465.95 830.2C3487.15 830.2 3503.95 824 3516.35 811.6C3529.15 799.6 3535.55 780.2 3535.55 753.4V706C3525.55 721.6 3511.75 734.4 3494.15 744.4C3476.55 754 3455.95 758.8 3432.35 758.8C3404.75 758.8 3379.75 751.8 3357.35 737.8C3334.95 723.4 3317.15 703.2 3303.95 677.2C3291.15 650.8 3284.75 620.4 3284.75 586C3284.75 551.6 3291.15 521.4 3303.95 495.4C3317.15 469.4 3334.95 449.4 3357.35 435.4C3379.75 421.4 3404.75 414.4 3432.35 414.4ZM3535.55 586.6C3535.55 561 3528.35 540.8 3513.95 526C3499.95 511.2 3482.75 503.8 3462.35 503.8C3441.95 503.8 3424.55 511.2 3410.15 526C3396.15 540.4 3389.15 560.4 3389.15 586C3389.15 611.6 3396.15 632 3410.15 647.2C3424.55 662 3441.95 669.4 3462.35 669.4C3482.75 669.4 3499.95 662 3513.95 647.2C3528.35 632.4 3535.55 612.2 3535.55 586.6ZM3763.97 384.4C3745.97 384.4 3731.17 379.2 3719.57 368.8C3708.37 358 3702.77 344.8 3702.77 329.2C3702.77 313.2 3708.37 300 3719.57 289.6C3731.17 278.8 3745.97 273.4 3763.97 273.4C3781.57 273.4 3795.97 278.8 3807.17 289.6C3818.77 300 3824.57 313.2 3824.57 329.2C3824.57 344.8 3818.77 358 3807.17 368.8C3795.97 379.2 3781.57 384.4 3763.97 384.4ZM3814.97 419.2V754H3712.37V419.2H3814.97ZM4093.33 415.6C4132.53 415.6 4163.73 428.4 4186.93 454C4210.53 479.2 4222.33 514 4222.33 558.4V754H4120.33V572.2C4120.33 549.8 4114.53 532.4 4102.93 520C4091.33 507.6 4075.73 501.4 4056.13 501.4C4036.53 501.4 4020.93 507.6 4009.33 520C3997.73 532.4 3991.93 549.8 3991.93 572.2V754H3889.33V419.2H3991.93V463.6C4002.33 448.8 4016.33 437.2 4033.93 428.8C4051.53 420 4071.33 415.6 4093.33 415.6ZM4609.22 581.2C4609.22 590.8 4608.62 600.8 4607.42 611.2H4375.22C4376.82 632 4383.42 648 4395.02 659.2C4407.02 670 4421.62 675.4 4438.82 675.4C4464.42 675.4 4482.22 664.6 4492.22 643H4601.42C4595.82 665 4585.62 684.8 4570.82 702.4C4556.42 720 4538.22 733.8 4516.22 743.8C4494.22 753.8 4469.62 758.8 4442.42 758.8C4409.62 758.8 4380.42 751.8 4354.82 737.8C4329.22 723.8 4309.22 703.8 4294.82 677.8C4280.42 651.8 4273.22 621.4 4273.22 586.6C4273.22 551.8 4280.22 521.4 4294.22 495.4C4308.62 469.4 4328.62 449.4 4354.22 435.4C4379.82 421.4 4409.22 414.4 4442.42 414.4C4474.82 414.4 4503.62 421.2 4528.82 434.8C4554.02 448.4 4573.62 467.8 4587.62 493C4602.02 518.2 4609.22 547.6 4609.22 581.2ZM4504.22 554.2C4504.22 536.6 4498.22 522.6 4486.22 512.2C4474.22 501.8 4459.22 496.6 4441.22 496.6C4424.02 496.6 4409.42 501.6 4397.42 511.6C4385.82 521.6 4378.62 535.8 4375.82 554.2H4504.22Z" fill="white"/>
</svg>
