<svg width="4386" height="1335" viewBox="0 0 4386 1335" fill="none" xmlns="http://www.w3.org/2000/svg">
<path d="M115.8 737C115.8 702.6 122.2 672.4 135 646.4C148.2 620.4 166 600.4 188.4 586.4C210.8 572.4 235.8 565.4 263.4 565.4C285.4 565.4 305.4 570 323.4 579.2C341.8 588.4 356.2 600.8 366.6 616.4V461H469.2V905H366.6V857C357 873 343.2 885.8 325.2 895.4C307.6 905 287 909.8 263.4 909.8C235.8 909.8 210.8 902.8 188.4 888.8C166 874.4 148.2 854.2 135 828.2C122.2 801.8 115.8 771.4 115.8 737ZM366.6 737.6C366.6 712 359.4 691.8 345 677C331 662.2 313.8 654.8 293.4 654.8C273 654.8 255.6 662.2 241.2 677C227.2 691.4 220.2 711.4 220.2 737C220.2 762.6 227.2 783 241.2 798.2C255.6 813 273 820.4 293.4 820.4C313.8 820.4 331 813 345 798.2C359.4 783.4 366.6 763.2 366.6 737.6ZM695.827 909.8C663.027 909.8 633.427 902.8 607.027 888.8C581.027 874.8 560.427 854.8 545.227 828.8C530.427 802.8 523.027 772.4 523.027 737.6C523.027 703.2 530.627 673 545.827 647C561.027 620.6 581.827 600.4 608.227 586.4C634.627 572.4 664.227 565.4 697.027 565.4C729.827 565.4 759.427 572.4 785.827 586.4C812.227 600.4 833.027 620.6 848.227 647C863.427 673 871.027 703.2 871.027 737.6C871.027 772 863.227 802.4 847.627 828.8C832.427 854.8 811.427 874.8 784.627 888.8C758.227 902.8 728.627 909.8 695.827 909.8ZM695.827 821C715.427 821 732.027 813.8 745.627 799.4C759.627 785 766.627 764.4 766.627 737.6C766.627 710.8 759.827 690.2 746.227 675.8C733.027 661.4 716.627 654.2 697.027 654.2C677.027 654.2 660.427 661.4 647.227 675.8C634.027 689.8 627.427 710.4 627.427 737.6C627.427 764.4 633.827 785 646.627 799.4C659.827 813.8 676.227 821 695.827 821ZM905.058 737.6C905.058 702.8 912.058 672.4 926.058 646.4C940.458 620.4 960.258 600.4 985.458 586.4C1011.06 572.4 1040.26 565.4 1073.06 565.4C1115.06 565.4 1150.06 576.4 1178.06 598.4C1206.46 620.4 1225.06 651.4 1233.86 691.4H1124.66C1115.46 665.8 1097.66 653 1071.26 653C1052.46 653 1037.46 660.4 1026.26 675.2C1015.06 689.6 1009.46 710.4 1009.46 737.6C1009.46 764.8 1015.06 785.8 1026.26 800.6C1037.46 815 1052.46 822.2 1071.26 822.2C1097.66 822.2 1115.46 809.4 1124.66 783.8H1233.86C1225.06 823 1206.46 853.8 1178.06 876.2C1149.66 898.6 1114.66 909.8 1073.06 909.8C1040.26 909.8 1011.06 902.8 985.458 888.8C960.258 874.8 940.458 854.8 926.058 828.8C912.058 802.8 905.058 772.4 905.058 737.6ZM1493.34 905L1391.34 764.6V905H1288.74V461H1391.34V706.4L1492.74 570.2H1619.34L1480.14 738.2L1620.54 905H1493.34ZM1975.24 732.2C1975.24 741.8 1974.64 751.8 1973.44 762.2H1741.24C1742.84 783 1749.44 799 1761.04 810.2C1773.04 821 1787.64 826.4 1804.84 826.4C1830.44 826.4 1848.24 815.6 1858.24 794H1967.44C1961.84 816 1951.64 835.8 1936.84 853.4C1922.44 871 1904.24 884.8 1882.24 894.8C1860.24 904.8 1835.64 909.8 1808.44 909.8C1775.64 909.8 1746.44 902.8 1720.84 888.8C1695.24 874.8 1675.24 854.8 1660.84 828.8C1646.44 802.8 1639.24 772.4 1639.24 737.6C1639.24 702.8 1646.24 672.4 1660.24 646.4C1674.64 620.4 1694.64 600.4 1720.24 586.4C1745.84 572.4 1775.24 565.4 1808.44 565.4C1840.84 565.4 1869.64 572.2 1894.84 585.8C1920.04 599.4 1939.64 618.8 1953.64 644C1968.04 669.2 1975.24 698.6 1975.24 732.2ZM1870.24 705.2C1870.24 687.6 1864.24 673.6 1852.24 663.2C1840.24 652.8 1825.24 647.6 1807.24 647.6C1790.04 647.6 1775.44 652.6 1763.44 662.6C1751.84 672.6 1744.64 686.8 1741.84 705.2H1870.24ZM2131.96 626C2143.96 607.6 2158.96 593.2 2176.96 582.8C2194.96 572 2214.96 566.6 2236.96 566.6V675.2H2208.76C2183.16 675.2 2163.96 680.8 2151.16 692C2138.36 702.8 2131.96 722 2131.96 749.6V905H2029.36V570.2H2131.96V626Z" fill="white"/>
</svg>
