<svg width="5221" height="978" viewBox="0 0 5221 978" fill="none" xmlns="http://www.w3.org/2000/svg">
<path d="M666.2 538C690.6 543.2 710.2 555.4 725 574.6C739.8 593.4 747.2 615 747.2 639.4C747.2 674.6 734.8 702.6 710 723.4C685.6 743.8 651.4 754 607.4 754H411.2V332.8H600.8C643.6 332.8 677 342.6 701 362.2C725.4 381.8 737.6 408.4 737.6 442C737.6 466.8 731 487.4 717.8 503.8C705 520.2 687.8 531.6 666.2 538ZM513.8 503.2H581C597.8 503.2 610.6 499.6 619.4 492.4C628.6 484.8 633.2 473.8 633.2 459.4C633.2 445 628.6 434 619.4 426.4C610.6 418.8 597.8 415 581 415H513.8V503.2ZM589.4 671.2C606.6 671.2 619.8 667.4 629 659.8C638.6 651.8 643.4 640.4 643.4 625.6C643.4 610.8 638.4 599.2 628.4 590.8C618.8 582.4 605.4 578.2 588.2 578.2H513.8V671.2H589.4ZM909.308 310V754H806.708V310H909.308ZM1299.26 581.2C1299.26 590.8 1298.66 600.8 1297.46 611.2H1065.26C1066.86 632 1073.46 648 1085.06 659.2C1097.06 670 1111.66 675.4 1128.86 675.4C1154.46 675.4 1172.26 664.6 1182.26 643H1291.46C1285.86 665 1275.66 684.8 1260.86 702.4C1246.46 720 1228.26 733.8 1206.26 743.8C1184.26 753.8 1159.66 758.8 1132.46 758.8C1099.66 758.8 1070.46 751.8 1044.86 737.8C1019.26 723.8 999.261 703.8 984.861 677.8C970.461 651.8 963.261 621.4 963.261 586.6C963.261 551.8 970.261 521.4 984.261 495.4C998.661 469.4 1018.66 449.4 1044.26 435.4C1069.86 421.4 1099.26 414.4 1132.46 414.4C1164.86 414.4 1193.66 421.2 1218.86 434.8C1244.06 448.4 1263.66 467.8 1277.66 493C1292.06 518.2 1299.26 547.6 1299.26 581.2ZM1194.26 554.2C1194.26 536.6 1188.26 522.6 1176.26 512.2C1164.26 501.8 1149.26 496.6 1131.26 496.6C1114.06 496.6 1099.46 501.6 1087.46 511.6C1075.86 521.6 1068.66 535.8 1065.86 554.2H1194.26ZM1557.39 415.6C1596.59 415.6 1627.79 428.4 1650.99 454C1674.59 479.2 1686.39 514 1686.39 558.4V754H1584.39V572.2C1584.39 549.8 1578.59 532.4 1566.99 520C1555.39 507.6 1539.79 501.4 1520.19 501.4C1500.59 501.4 1484.99 507.6 1473.39 520C1461.79 532.4 1455.99 549.8 1455.99 572.2V754H1353.39V419.2H1455.99V463.6C1466.39 448.8 1480.39 437.2 1497.99 428.8C1515.59 420 1535.39 415.6 1557.39 415.6ZM1737.28 586C1737.28 551.6 1743.68 521.4 1756.48 495.4C1769.68 469.4 1787.48 449.4 1809.88 435.4C1832.28 421.4 1857.28 414.4 1884.88 414.4C1906.88 414.4 1926.88 419 1944.88 428.2C1963.28 437.4 1977.68 449.8 1988.08 465.4V310H2090.68V754H1988.08V706C1978.48 722 1964.68 734.8 1946.68 744.4C1929.08 754 1908.48 758.8 1884.88 758.8C1857.28 758.8 1832.28 751.8 1809.88 737.8C1787.48 723.4 1769.68 703.2 1756.48 677.2C1743.68 650.8 1737.28 620.4 1737.28 586ZM1988.08 586.6C1988.08 561 1980.88 540.8 1966.48 526C1952.48 511.2 1935.28 503.8 1914.88 503.8C1894.48 503.8 1877.08 511.2 1862.68 526C1848.68 540.4 1841.68 560.4 1841.68 586C1841.68 611.6 1848.68 632 1862.68 647.2C1877.08 662 1894.48 669.4 1914.88 669.4C1935.28 669.4 1952.48 662 1966.48 647.2C1980.88 632.4 1988.08 612.2 1988.08 586.6ZM2480.51 581.2C2480.51 590.8 2479.91 600.8 2478.71 611.2H2246.51C2248.11 632 2254.71 648 2266.31 659.2C2278.31 670 2292.91 675.4 2310.11 675.4C2335.71 675.4 2353.51 664.6 2363.51 643H2472.71C2467.11 665 2456.91 684.8 2442.11 702.4C2427.71 720 2409.51 733.8 2387.51 743.8C2365.51 753.8 2340.91 758.8 2313.71 758.8C2280.91 758.8 2251.71 751.8 2226.11 737.8C2200.51 723.8 2180.51 703.8 2166.11 677.8C2151.71 651.8 2144.51 621.4 2144.51 586.6C2144.51 551.8 2151.51 521.4 2165.51 495.4C2179.91 469.4 2199.91 449.4 2225.51 435.4C2251.11 421.4 2280.51 414.4 2313.71 414.4C2346.11 414.4 2374.91 421.2 2400.11 434.8C2425.31 448.4 2444.91 467.8 2458.91 493C2473.31 518.2 2480.51 547.6 2480.51 581.2ZM2375.51 554.2C2375.51 536.6 2369.51 522.6 2357.51 512.2C2345.51 501.8 2330.51 496.6 2312.51 496.6C2295.31 496.6 2280.71 501.6 2268.71 511.6C2257.11 521.6 2249.91 535.8 2247.11 554.2H2375.51ZM2637.24 475C2649.24 456.6 2664.24 442.2 2682.24 431.8C2700.24 421 2720.24 415.6 2742.24 415.6V524.2H2714.04C2688.44 524.2 2669.24 529.8 2656.44 541C2643.64 551.8 2637.24 571 2637.24 598.6V754H2534.64V419.2H2637.24V475Z" fill="white"/>
</svg>
