<svg width="4386" height="1335" viewBox="0 0 4386 1335" fill="none" xmlns="http://www.w3.org/2000/svg">
<g clip-path="url(#clip0_705_3)">
<path d="M370 933H267.4L95.8 673.2V933H-6.8V511.8H95.8L267.4 772.8V511.8H370V933ZM759.972 760.2C759.972 769.8 759.372 779.8 758.172 790.2H525.972C527.572 811 534.172 827 545.772 838.2C557.772 849 572.372 854.4 589.572 854.4C615.172 854.4 632.972 843.6 642.972 822H752.172C746.572 844 736.372 863.8 721.572 881.4C707.172 899 688.972 912.8 666.972 922.8C644.972 932.8 620.372 937.8 593.172 937.8C560.372 937.8 531.172 930.8 505.572 916.8C479.972 902.8 459.972 882.8 445.572 856.8C431.172 830.8 423.972 800.4 423.972 765.6C423.972 730.8 430.972 700.4 444.972 674.4C459.372 648.4 479.372 628.4 504.972 614.4C530.572 600.4 559.972 593.4 593.172 593.4C625.572 593.4 654.372 600.2 679.572 613.8C704.772 627.4 724.372 646.8 738.372 672C752.772 697.2 759.972 726.6 759.972 760.2ZM654.972 733.2C654.972 715.6 648.972 701.6 636.972 691.2C624.972 680.8 609.972 675.6 591.972 675.6C574.772 675.6 560.172 680.6 548.172 690.6C536.572 700.6 529.372 714.8 526.572 733.2H654.972ZM1012.1 933L947.898 840L893.898 933H782.898L893.298 762L779.898 598.2H895.098L959.298 690.6L1013.3 598.2H1124.3L1012.1 766.8L1127.3 933H1012.1ZM1353.43 846V933H1301.23C1264.03 933 1235.03 924 1214.23 906C1193.43 887.6 1183.03 857.8 1183.03 816.6V683.4H1142.23V598.2H1183.03V516.6H1285.63V598.2H1352.83V683.4H1285.63V817.8C1285.63 827.8 1288.03 835 1292.83 839.4C1297.63 843.8 1305.63 846 1316.83 846H1353.43ZM1458.58 937.8C1440.58 937.8 1425.78 932.6 1414.18 922.2C1402.98 911.4 1397.38 898.2 1397.38 882.6C1397.38 866.6 1402.98 853.2 1414.18 842.4C1425.78 831.6 1440.58 826.2 1458.58 826.2C1476.18 826.2 1490.58 831.6 1501.78 842.4C1513.38 853.2 1519.18 866.6 1519.18 882.6C1519.18 898.2 1513.38 911.4 1501.78 922.2C1490.58 932.6 1476.18 937.8 1458.58 937.8ZM1843.92 511.8V798.6C1843.92 843 1831.32 877.2 1806.12 901.2C1781.32 925.2 1747.72 937.2 1705.32 937.2C1660.92 937.2 1625.32 924.6 1598.52 899.4C1571.72 874.2 1558.32 838.4 1558.32 792H1660.32C1660.32 809.6 1663.92 823 1671.12 832.2C1678.32 841 1688.72 845.4 1702.32 845.4C1714.72 845.4 1724.32 841.4 1731.12 833.4C1737.92 825.4 1741.32 813.8 1741.32 798.6V511.8H1843.92ZM2062.99 937.8C2033.79 937.8 2007.79 932.8 1984.99 922.8C1962.19 912.8 1944.19 899.2 1930.99 882C1917.79 864.4 1910.39 844.8 1908.79 823.2H2010.19C2011.39 834.8 2016.79 844.2 2026.39 851.4C2035.99 858.6 2047.79 862.2 2061.79 862.2C2074.59 862.2 2084.39 859.8 2091.19 855C2098.39 849.8 2101.99 843.2 2101.99 835.2C2101.99 825.6 2096.99 818.6 2086.99 814.2C2076.99 809.4 2060.79 804.2 2038.39 798.6C2014.39 793 1994.39 787.2 1978.39 781.2C1962.39 774.8 1948.59 765 1936.99 751.8C1925.39 738.2 1919.59 720 1919.59 697.2C1919.59 678 1924.79 660.6 1935.19 645C1945.99 629 1961.59 616.4 1981.99 607.2C2002.79 598 2027.39 593.4 2055.79 593.4C2097.79 593.4 2130.79 603.8 2154.79 624.6C2179.19 645.4 2193.19 673 2196.79 707.4H2101.99C2100.39 695.8 2095.19 686.6 2086.39 679.8C2077.99 673 2066.79 669.6 2052.79 669.6C2040.79 669.6 2031.59 672 2025.19 676.8C2018.79 681.2 2015.59 687.4 2015.59 695.4C2015.59 705 2020.59 712.2 2030.59 717C2040.99 721.8 2056.99 726.6 2078.59 731.4C2103.39 737.8 2123.59 744.2 2139.19 750.6C2154.79 756.6 2168.39 766.6 2179.99 780.6C2191.99 794.2 2198.19 812.6 2198.59 835.8C2198.59 855.4 2192.99 873 2181.79 888.6C2170.99 903.8 2155.19 915.8 2134.39 924.6C2113.99 933.4 2090.19 937.8 2062.99 937.8Z" fill="white"/>
</g>
<defs>
<clipPath id="clip0_705_3">
<rect width="4386" height="1335" fill="white"/>
</clipPath>
</defs>
</svg>
