<svg width="4386" height="1335" viewBox="0 0 4386 1335" fill="none" xmlns="http://www.w3.org/2000/svg">
<g clip-path="url(#clip0_705_3)">
<path d="M267.4 511.8V594H95.8V682.8H224.2V762.6H95.8V933H-6.8V511.8H267.4ZM423.925 511.8V933H321.325V511.8H423.925ZM777.878 645C770.278 631 759.278 620.4 744.878 613.2C730.878 605.6 714.278 601.8 695.078 601.8C661.878 601.8 635.278 612.8 615.278 634.8C595.278 656.4 585.278 685.4 585.278 721.8C585.278 760.6 595.678 791 616.478 813C637.678 834.6 666.678 845.4 703.478 845.4C728.678 845.4 749.878 839 767.078 826.2C784.678 813.4 797.478 795 805.478 771H675.278V695.4H898.478V790.8C890.878 816.4 877.878 840.2 859.478 862.2C841.478 884.2 818.478 902 790.478 915.6C762.478 929.2 730.878 936 695.678 936C654.078 936 616.878 927 584.078 909C551.678 890.6 526.278 865.2 507.878 832.8C489.878 800.4 480.878 763.4 480.878 721.8C480.878 680.2 489.878 643.2 507.878 610.8C526.278 578 551.678 552.6 584.078 534.6C616.478 516.2 653.478 507 695.078 507C745.478 507 787.878 519.2 822.278 543.6C857.078 568 880.078 601.8 891.278 645H777.878ZM1432.31 511.8V933H1329.71V680.4L1235.51 933H1152.71L1057.91 679.8V933H955.309V511.8H1076.51L1194.71 803.4L1311.71 511.8H1432.31ZM1768.29 858.6H1611.09L1585.89 933H1478.49L1630.89 511.8H1749.69L1902.09 933H1793.49L1768.29 858.6ZM1741.89 779.4L1689.69 625.2L1638.09 779.4H1741.89Z" fill="white"/>
</g>
<defs>
<clipPath id="clip0_705_3">
<rect width="4386" height="1335" fill="white"/>
</clipPath>
</defs>
</svg>
