<?xml version="1.0" encoding="iso-8859-1"?>
<!-- Generator: Adobe Illustrator 24.2.1, SVG Export Plug-In . SVG Version: 6.00 Build 0)  -->
<svg version="1.1" id="Layer_1" xmlns="http://www.w3.org/2000/svg" xmlns:xlink="http://www.w3.org/1999/xlink" x="0px" y="0px"
	 viewBox="0 0 48 48" style="enable-background:new 0 0 48 48;" xml:space="preserve">
<g id="Layer_1_1_">
</g>
<g id="Layer_2_1_">
	<g>
		<path style="fill:#D6E5E5;" d="M29.767,4.795c0,0-13.602-4.166-21.823,6.977s-1.3,24.403,5.261,28.081
			c0,0,13.483,8.618,25.852-5.054c0,0,5.358-5.589,4.523-12.215c0,0-0.581-6.749-3.772-7.422c0,0-3.446-7.375-7.531-7.822
			C32.277,7.34,31.139,5.117,29.767,4.795z"/>
		<path style="fill:#BCBCBC;" d="M12.719,16.853c0,0-10.291,8.967,0.349,19.283c0,0,11.549,9.167,19.4-2.705
			c0,0-10.293,5.314-16.516-1.436C15.952,31.995,8.336,25.936,12.719,16.853z"/>
		<polygon style="fill:#4B7BB2;" points="31.75,9 29.082,11.092 22.087,14.792 18.205,18.924 17.551,21.989 18.235,24.789 
			21.027,28.548 25.191,29.903 28.752,29.37 31.176,27.725 35.39,19.051 38.078,15.18 34.973,11.952 		"/>
		<path style="fill:#010101;" d="M43.507,19.479c-0.444-1.548-1.068-3.52-2.513-4.43c-0.292-0.184-0.591-0.276-0.89-0.328
			c-0.005-0.021-0.001-0.039-0.009-0.061c-0.345-1.013-0.952-1.968-1.553-2.844c-0.986-1.435-2.157-2.745-3.552-3.794
			c-0.78-0.587-1.634-1.058-2.544-1.405c-0.187-0.615-0.581-1.187-1.144-1.599c-1.465-1.074-3.612-1.353-5.371-1.542
			c-1.885-0.202-3.79-0.127-5.658,0.188c-3.65,0.615-7.135,2.225-9.914,4.679C6.196,12.02,3.78,17.625,3.84,23.17
			c0.065,6.029,2.667,12.1,7.405,15.932c2.891,2.338,6.89,3.671,10.582,3.879c3.384,0.191,6.888-0.529,10.021-1.792
			c2.815-1.134,5.062-3.287,7.088-5.503c2.691-2.944,4.76-6.378,5.138-10.419C44.257,23.326,44.044,21.349,43.507,19.479z
			 M12.284,34.672c-2.586-2.766-4.166-6.743-3.413-10.542c0.401-2.026,1.38-3.922,2.688-5.559c-0.339,1.218-0.497,2.482-0.541,3.798
			c-0.074,2.207,0.318,4.222,1.368,6.18c2.204,4.109,6.459,7.007,11.121,7.388c2.804,0.229,5.554-0.496,8.045-1.738
			c-0.081,0.125-0.152,0.256-0.238,0.378c-1.358,1.924-3.341,3.288-5.612,3.899c-3.004,0.809-6.68,0.624-9.489-0.767
			C14.71,36.964,13.438,35.878,12.284,34.672z M37.589,15.678c-0.199,0.207-0.374,0.437-0.523,0.683
			c-1.125,0.966-2.129,2.247-2.783,3.577c-0.839,1.704-1.261,3.581-2.083,5.293c-0.71,1.477-1.752,2.928-3.319,3.566
			c-1.587,0.647-3.42,0.82-5.044,0.236c-1.615-0.581-3.025-1.741-4.16-3.005c-0.794-0.885-1.289-1.921-1.516-3.081
			c-0.554-2.818,1.101-5.523,3.239-7.239c3.004-2.411,7.58-2.666,9.758-6.105c0.195-0.121,0.377-0.258,0.547-0.411
			C32.93,10.225,36.795,13.605,37.589,15.678z M42.134,29.12c-1.462,3.654-4.407,6.693-7.391,9.169
			c-0.892,0.74-1.731,1.324-2.793,1.782c-1.318,0.569-2.704,0.997-4.101,1.323c-1.739,0.406-3.522,0.638-5.31,0.61
			c-1.893-0.029-3.735-0.432-5.532-1.014c-1.836-0.595-3.634-1.432-5.134-2.663c-1.38-1.132-2.598-2.505-3.599-3.98
			c-1.643-2.421-2.703-5.186-3.171-8.07c-0.784-4.828,0.216-9.702,2.963-13.806c4.095-6.116,11.87-9.098,19.054-7.827
			c1.342,0.237,4.035,0.647,4.431,2.281c-0.009,0.095-0.001,0.192,0.04,0.28c0.003,0.04,0.012,0.076,0.013,0.117
			c0.01,0.881-0.828,1.41-1.534,1.741c-0.884,0.414-1.851,0.685-2.783,0.967c-3.798,1.149-7.894,1.813-11.436,3.673
			c-3.008,1.579-5.557,4.238-6.988,7.321c-1.505,3.242-1.492,6.797-0.094,10.078c0.675,1.583,1.635,3.023,2.808,4.278
			c2.196,2.295,4.788,3.905,7.97,4.347c2.854,0.397,5.89,0.211,8.51-1.071c3.402-1.665,5.48-5.056,6.339-8.647
			c0.583-2.435,1.053-4.893,1.689-7.319c0.273-1.043,0.56-2.083,0.861-3.118c0.258-0.888,0.48-1.845,0.95-2.653
			c0.016-0.026,0.032-0.052,0.042-0.079c0.013-0.021,0.022-0.045,0.035-0.067c0.5-0.787,1.448-1.415,2.374-0.944
			c0.719,0.365,1.156,1.184,1.471,1.89C43.413,21.302,43.596,25.465,42.134,29.12z"/>
	</g>
</g>
</svg>